<?xml version="1.0" ?><svg data-name="Adobe Folder 2020" id="Adobe_Folder_2020" viewBox="0 0 240 210" xmlns="http://www.w3.org/2000/svg"><defs><style>.cls-1{fill:#0b004d;}.cls-2{fill:#d9d9ff;}.cls-3{fill:#9e8cff;}</style></defs><title/><g id="Encoder"><path class="cls-1" d="M232.5,52.5a15,15,0,0,0-15-15H7.5v150a15,15,0,0,0,15,15h195a15,15,0,0,0,15-15Z"/><path class="cls-2" d="M101.1,71H91.3v9.8h9.8Zm49,9.8h-9.8v9.8h9.8Zm-19.6,0h-9.8v9.8h9.8Zm-19.6,9.8V80.8h-9.8v9.8Zm9.8,9.8V90.6h-9.8v9.8Zm39.2,0v9.8h9.8v-9.8Zm-9.8,0h-9.8v9.8h9.8Zm-19.6,9.8v-9.8h-9.8v9.8Zm9.8,9.8v-9.8h-9.8V120Zm19.6,9.8h9.8V120h-9.8Zm-9.8,0V120h-9.8v9.8Zm0,9.8h9.8v-9.8h-9.8Zm19.6,9.8v-9.8h-9.8v9.8Zm-19.6-9.8h-9.8v-9.8h-9.8V120h-9.8v-9.8h-9.8v-9.8h-9.8V90.6H91.3V80.8H81.5V71H70.3v98h99.4v-9.8h-9.8v-9.8h-9.8Z"/><path class="cls-3" d="M217.5,30H137.63A3.41,3.41,0,0,1,135,28.88L111.75,5.63A18.2,18.2,0,0,0,98.63,0H22.5A22.57,22.57,0,0,0,0,22.5v165A22.57,22.57,0,0,0,22.5,210h195A22.57,22.57,0,0,0,240,187.5V52.5A22.57,22.57,0,0,0,217.5,30Zm15,157.5a15,15,0,0,1-15,15H22.5a15,15,0,0,1-15-15V37.5h210a15,15,0,0,1,15,15Z" data-name="Path 4" id="Path_4"/></g></svg>